# xmcd CD database file
#
# Track frame offsets:
#	150
#	24299
#	54947
#	76652
#	97442
#	121912
#	146729
#	172166
#	188639
#	209720
#	232833
#
# Disc length: 3411 seconds
#
# Revision: 0
# Processed by: cddbd v1.5.2PL0 Copyright (c) Steve Scherf et al.
# Submitted via: CDex 2.12
#
DISCID=920d510b
DTITLE=New Project Stray Horns - Lush Music
DYEAR=2015
DGENRE=Jazz
TTITLE0=Upper Manhattan Medical Group
TTITLE1=Chelsea Bridge
TTITLE2=Half the Fun
TTITLE3=Dolls
TTITLE4=Star Crossed Lovers
TTITLE5=Johnny Come Lately
TTITLE6=Lush Life
TTITLE7=Take the "A" Train
TTITLE8=Isfahan
TTITLE9=Rain Check
TTITLE10=Blood Count
EXTD=YEAR: 2015
EXTT0=
EXTT1=
EXTT2=
EXTT3=
EXTT4=
EXTT5=
EXTT6=
EXTT7=
EXTT8=
EXTT9=
EXTT10=
PLAYORDER=
